<mxfile host="app.diagrams.net" modified="2021-06-13T08:52:54.521Z" agent="5.0 (Macintosh; Intel Mac OS X 10_15_7) AppleWebKit/537.36 (KHTML, like Gecko) Chrome/91.0.4472.77 Safari/537.36" etag="mHe5roMD_Yz4XZV7-Dw1" version="14.7.7" type="github">
  <diagram id="f1g8RhlFuWornB15amdg" name="第 1 页">
    <mxGraphModel dx="946" dy="447" grid="1" gridSize="10" guides="1" tooltips="1" connect="1" arrows="1" fold="1" page="1" pageScale="1" pageWidth="1169" pageHeight="827" math="0" shadow="0">
      <root>
        <mxCell id="0" />
        <mxCell id="1" parent="0" />
        <mxCell id="hxXvfoWs9PmUw7d7nvip-1" value="&lt;font style=&quot;font-size: 16px&quot;&gt;应用数据&lt;/font&gt;" style="rounded=0;whiteSpace=wrap;html=1;fillColor=#cdeb8b;strokeColor=#36393d;" vertex="1" parent="1">
          <mxGeometry x="410" y="100" width="120" height="60" as="geometry" />
        </mxCell>
        <mxCell id="hxXvfoWs9PmUw7d7nvip-2" value="&lt;font style=&quot;font-size: 16px&quot;&gt;应用数据&lt;/font&gt;" style="rounded=0;whiteSpace=wrap;html=1;fillColor=#cdeb8b;strokeColor=#36393d;" vertex="1" parent="1">
          <mxGeometry x="410" y="200" width="120" height="60" as="geometry" />
        </mxCell>
        <mxCell id="hxXvfoWs9PmUw7d7nvip-3" value="&lt;font style=&quot;font-size: 16px&quot;&gt;TCP 头&lt;/font&gt;" style="rounded=0;whiteSpace=wrap;html=1;fillColor=#cce5ff;strokeColor=#36393d;" vertex="1" parent="1">
          <mxGeometry x="290" y="200" width="120" height="60" as="geometry" />
        </mxCell>
        <mxCell id="hxXvfoWs9PmUw7d7nvip-4" value="&lt;font style=&quot;font-size: 16px&quot;&gt;应用数据&lt;/font&gt;" style="rounded=0;whiteSpace=wrap;html=1;fillColor=#cdeb8b;strokeColor=#36393d;" vertex="1" parent="1">
          <mxGeometry x="410" y="300" width="120" height="60" as="geometry" />
        </mxCell>
        <mxCell id="hxXvfoWs9PmUw7d7nvip-5" value="&lt;font style=&quot;font-size: 16px&quot;&gt;TCP 头&lt;/font&gt;" style="rounded=0;whiteSpace=wrap;html=1;fillColor=#cce5ff;strokeColor=#36393d;" vertex="1" parent="1">
          <mxGeometry x="290" y="300" width="120" height="60" as="geometry" />
        </mxCell>
        <mxCell id="hxXvfoWs9PmUw7d7nvip-6" value="&lt;font style=&quot;font-size: 16px&quot;&gt;IP 头&lt;/font&gt;" style="rounded=0;whiteSpace=wrap;html=1;fillColor=#ffff88;strokeColor=#36393d;" vertex="1" parent="1">
          <mxGeometry x="170" y="300" width="120" height="60" as="geometry" />
        </mxCell>
        <mxCell id="hxXvfoWs9PmUw7d7nvip-7" value="&lt;font style=&quot;font-size: 16px&quot;&gt;应用数据&lt;/font&gt;" style="rounded=0;whiteSpace=wrap;html=1;fillColor=#cdeb8b;strokeColor=#36393d;" vertex="1" parent="1">
          <mxGeometry x="350" y="414" width="120" height="60" as="geometry" />
        </mxCell>
        <mxCell id="hxXvfoWs9PmUw7d7nvip-8" value="&lt;font style=&quot;font-size: 16px&quot;&gt;TCP 头&lt;/font&gt;" style="rounded=0;whiteSpace=wrap;html=1;fillColor=#cce5ff;strokeColor=#36393d;" vertex="1" parent="1">
          <mxGeometry x="230" y="414" width="120" height="60" as="geometry" />
        </mxCell>
        <mxCell id="hxXvfoWs9PmUw7d7nvip-9" value="&lt;font style=&quot;font-size: 16px&quot;&gt;IP 头&lt;/font&gt;" style="rounded=0;whiteSpace=wrap;html=1;fillColor=#ffff88;strokeColor=#36393d;" vertex="1" parent="1">
          <mxGeometry x="110" y="414" width="120" height="60" as="geometry" />
        </mxCell>
        <mxCell id="hxXvfoWs9PmUw7d7nvip-14" value="&lt;span style=&quot;font-size: 16px&quot;&gt;帧尾&lt;/span&gt;" style="rounded=0;whiteSpace=wrap;html=1;fillColor=#ffcccc;strokeColor=#36393d;" vertex="1" parent="1">
          <mxGeometry x="465" y="414" width="65" height="60" as="geometry" />
        </mxCell>
        <mxCell id="hxXvfoWs9PmUw7d7nvip-15" value="&lt;span style=&quot;font-size: 16px&quot;&gt;帧头&lt;/span&gt;" style="rounded=0;whiteSpace=wrap;html=1;fillColor=#ffcccc;strokeColor=#36393d;" vertex="1" parent="1">
          <mxGeometry x="45" y="414" width="65" height="60" as="geometry" />
        </mxCell>
        <mxCell id="hxXvfoWs9PmUw7d7nvip-16" value="&lt;font style=&quot;font-size: 16px&quot;&gt;应用层&lt;/font&gt;" style="rounded=1;whiteSpace=wrap;html=1;fillColor=#cdeb8b;strokeColor=#36393d;" vertex="1" parent="1">
          <mxGeometry x="660" y="100" width="120" height="60" as="geometry" />
        </mxCell>
        <mxCell id="hxXvfoWs9PmUw7d7nvip-17" value="&lt;font style=&quot;font-size: 16px&quot;&gt;传输层&lt;/font&gt;&lt;span style=&quot;color: rgba(0 , 0 , 0 , 0) ; font-family: monospace ; font-size: 0px&quot;&gt;%3CmxGraphModel%3E%3Croot%3E%3CmxCell%20id%3D%220%22%2F%3E%3CmxCell%20id%3D%221%22%20parent%3D%220%22%2F%3E%3CmxCell%20id%3D%222%22%20value%3D%22%26lt%3Bfont%20style%3D%26quot%3Bfont-size%3A%2016px%26quot%3B%26gt%3B%E5%BA%94%E7%94%A8%E5%B1%82%26lt%3B%2Ffont%26gt%3B%22%20style%3D%22rounded%3D1%3BwhiteSpace%3Dwrap%3Bhtml%3D1%3BfillColor%3D%23cdeb8b%3BstrokeColor%3D%2336393d%3B%22%20vertex%3D%221%22%20parent%3D%221%22%3E%3CmxGeometry%20x%3D%22660%22%20y%3D%22100%22%20width%3D%22120%22%20height%3D%2260%22%20as%3D%22geometry%22%2F%3E%3C%2FmxCell%3E%3C%2Froot%3E%3C%2FmxGraphModel%3E&lt;/span&gt;" style="rounded=1;whiteSpace=wrap;html=1;fillColor=#cce5ff;strokeColor=#36393d;" vertex="1" parent="1">
          <mxGeometry x="660" y="200" width="120" height="60" as="geometry" />
        </mxCell>
        <mxCell id="hxXvfoWs9PmUw7d7nvip-18" value="&lt;span style=&quot;font-size: 16px&quot;&gt;网络层&lt;/span&gt;" style="rounded=1;whiteSpace=wrap;html=1;fillColor=#ffff88;strokeColor=#36393d;" vertex="1" parent="1">
          <mxGeometry x="660" y="300" width="120" height="60" as="geometry" />
        </mxCell>
        <mxCell id="hxXvfoWs9PmUw7d7nvip-19" value="&lt;span style=&quot;font-size: 16px&quot;&gt;网络接口层&lt;/span&gt;" style="rounded=1;whiteSpace=wrap;html=1;fillColor=#ffcccc;strokeColor=#36393d;" vertex="1" parent="1">
          <mxGeometry x="660" y="414" width="120" height="60" as="geometry" />
        </mxCell>
      </root>
    </mxGraphModel>
  </diagram>
</mxfile>
